<svg id="Layer_1" xmlns="http://www.w3.org/2000/svg" viewBox="728 -408 1536 896"><style>.st0{fill:#60bac3}.st1{fill:#eafcdb}.st2{fill:#e2f0d2}.st3{fill:#dbf1ca;stroke-width:4;stroke-miterlimit:10}.st3,.st4{stroke:#70c5ce}.st4{fill:none}.st4,.st5{stroke-width:4;stroke-miterlimit:10}.st5{fill:#dbf1ca;stroke:#ade2ba}.st6{fill:#ade2ba}.st7{fill:#82e38c}.st8{fill:#73c888}</style><path class="st0" d="M728-408h1536v896H728z"/><path class="st1" d="M2255.8 275.3v-6.6h-4.1v-5h-11.6v-5h-10.3v-5h-31.4v5h-11.7v5.3h-10.9v4.7h-4.8v5h-5.6v6.6h-5.3v10h-4.9v10.6h-16.9v-5.3h-9.2v-5.3h-32.8v5.3h-10v5.3h-15.2v-10.6h-5.3v-5h-5.5v-5h-5.5v-5h-10V269h-10.2v-5h-33.5v5h-10.5v5h-8.9v6.3h-5.7v5h-5.3v7.8h-11.3v-7.8h-6.3v-5h-10.2v-5h-10.7V269h-32.5v6.3h-10.2V269h-5.3v-5h-10.3v-6h-10.6v-5.3h-32.2v5.3h-16.2v6h-9.9v5h-11.6v6.3h-5V269h-3.8v-5h-6.5v-6h-5.6v-5.3h-9.8v-5.4h-9.7v-5h-33.5v5h-9.9v5.4h-10.7v5.5h-6.5V269h-5v6.3h-9V269h-10.9v-5h-31.2v5h-12.5v6h-9v4.3h-3.4v.8h-2v5h-4.9v2.9h-11v-2.9h-4.9v-5h-11.1V275h-11.1v-6h-31.8v6h-10v5.1h-15.2V275h-5.6v-6H1492v6h-5.7v5.1H1471V275h-10v-6h-32v6h-11.2v5.1h-11.1v5h-5v2.9h-11v-2.9h-5v-5h-2v-.8h-3.4V275h-9v-6h-12.6v-5h-31.4v5h-11v6.3h-9V269h-5v-10.8h-6.6v-5.5H1285v-5.4h-10v-5h-33.7v5h-9.8v5.4h-9.8v5.3h-5.7v6h-6.5v5h-3.8v6.3h-5V269H1189v-5h-10v-6h-16.3v-5.3h-32.4v5.3h-10.6v6h-10.4v5h-5.3v6.3h-10.3V269H1061v6.3h-10.7v5H1040v5h-6.3v7.8h-11.4v-7.8h-5.3v-5h-5.7V274h-9v-5h-10.6v-5H958v5h-10.2v6.3h-10.1v5h-5.5v5h-5.5v5h-5.4v10.6H906v-5.3h-10v-5.3h-33v5.3h-9.3v5.3h-17v-10.6h-4.9v-10h-5.3v-6.6h-5.7v-5H816V264h-11v-5.3h-11.7v-5h-31.6v5h-10.4v5h-11.6v5h-4.2v6.6l-7.5.2V488h1536V276z"/><path class="st2" d="M810.6 334.8v3.9h-11v7.3h-5.2v5.7h-5.2v71.6h46.1v-88.5h-24.7zM766.9 364h14.2v55h-14.2v-55zm232-29.2v3.9h-11.1v7.3h-5.1v5.7h-5.3v71.6h46.2v-88.5h-24.7zM955.2 364h14.2v55h-14.2v-55zm228.6-29.2v3.9h-11v7.3h-5.2v5.7h-5.2v71.6h46.2v-88.5h-24.8zm-43.7 29.2h14.2v55h-14.2v-55zm227.6-29.2v3.9h-11.1v7.3h-5.1v5.7h-5.3v71.6h46.2v-88.5h-24.7zM1324 364h14.2v55H1324v-55z"/><path class="st3" d="M908 346h23.3v25.3H908V346z"/><path class="st4" d="M847.2 386.5H873v62.1h-25.8v-62.1z"/><path class="st3" d="M827.4 344.2H863v104.3h-35.6V344.2z"/><path class="st3" d="M810.6 366H860v82.6h-49.4V366z"/><path class="st5" d="M874.5 323.4h15.7v14.5h-15.7v-14.5z"/><path class="st3" d="M915.9 323h-25.7v10.5h-21v115.1h25.7V438h21V323zm0 34h37.4v91.6h-37.4V357z"/><path class="st6" d="M900.5 333h6.3v5.7h-6.3V333z"/><path class="st6" d="M900.5 330.7h6.3v5.7h-6.3v-5.7z"/><path class="st6" d="M900.5 330.7h6.3v5.7h-6.3v-5.7zm-10.8 13.5h5v11.2h-5v-11.2zm-9.8 0h5v11.2h-5v-11.2zm19.7 0h5v11.2h-5v-11.2zm-9.9 16.2h5v11.2h-5v-11.2zm-9.8 0h5v11.2h-5v-11.2zm19.7 0h5v11.2h-5v-11.2zm-9.9 21h5v11.2h-5v-11.2zm-9.8 0h5v11.2h-5v-11.2zm19.7 0h5v11.2h-5v-11.2zm-9.9 20h5v11.2h-5v-11.2zm-9.8 0h5v11.2h-5v-11.2zm19.7 0h5v11.2h-5v-11.2zm29.3-30.1h5v11.2h-5v-11.2zm-11.7-12.6h6.8V448h-6.8v-89.3zm0-10.7h6.8v7.4h-6.8V348zm21.5 23.3h5v11.2h-5v-11.2zm-9.8 16.2h5v11.2h-5v-11.2zm9.8 0h5v11.2h-5v-11.2zm-9.8 21h5v11.2h-5v-11.2zm9.8 0h5v11.2h-5v-11.2zm-9.8 20h5v11.2h-5v-11.2zm9.8 0h5v11.2h-5v-11.2zm-123.6-55.7h5V384h-5v-11.2zm0 16.2h5v11.2h-5V389zm9.8-16.2h5V384h-5v-11.2zm0 16.2h5v11.2h-5V389zm12.9-16.2h5V384h-5v-11.2zm0 16.2h5v11.2h-5V389zm11.1-21.5h9v84.2h-9v-84.2zm6.7-21.7h6.1V364h-6.1v-18.2zM815.1 410h5v11.2h-5V410zm0 20h5v11.2h-5V430zm20.2-75.2h5v9.2h-5v-9.2z"/><path class="st3" d="M1092.5 346h23.3v25.3h-23.3V346z"/><path class="st4" d="M1031.6 386.5h25.8v62.1h-25.8v-62.1z"/><path class="st3" d="M1011.9 344.2h35.6v104.3h-35.6V344.2z"/><path class="st3" d="M995.1 366h49.4v82.6h-49.4V366z"/><path class="st5" d="M1059 323.4h15.7v14.5H1059v-14.5z"/><path class="st3" d="M1100.4 323h-25.8v10.5h-21v115.1h25.8V438h21V323zm0 34h37.4v91.6h-37.4V357z"/><path class="st6" d="M1085 333h6.3v5.7h-6.3V333z"/><path class="st6" d="M1085 330.7h6.3v5.7h-6.3v-5.7z"/><path class="st6" d="M1085 330.7h6.3v5.7h-6.3v-5.7zm-10.8 13.5h5v11.2h-5v-11.2zm-9.9 0h5v11.2h-5v-11.2zm19.7 0h5v11.2h-5v-11.2zm-9.8 16.2h5v11.2h-5v-11.2zm-9.9 0h5v11.2h-5v-11.2zm19.7 0h5v11.2h-5v-11.2zm-9.8 21h5v11.2h-5v-11.2zm-9.9 0h5v11.2h-5v-11.2zm19.7 0h5v11.2h-5v-11.2zm-9.8 20h5v11.2h-5v-11.2zm-9.9 0h5v11.2h-5v-11.2zm19.7 0h5v11.2h-5v-11.2zm29.3-30.1h5v11.2h-5v-11.2zm-11.7-12.6h6.8V448h-6.8v-89.3zm0-10.7h6.8v7.4h-6.8V348zm21.5 23.3h5v11.2h-5v-11.2zm-9.8 16.2h5v11.2h-5v-11.2zm9.8 0h5v11.2h-5v-11.2zm-9.8 21h5v11.2h-5v-11.2zm9.8 0h5v11.2h-5v-11.2zm-9.8 20h5v11.2h-5v-11.2zm9.8 0h5v11.2h-5v-11.2zm-123.6-55.7h5V384h-5v-11.2zm0 16.2h5v11.2h-5V389zm9.9-16.2h5V384h-5v-11.2zm0 16.2h5v11.2h-5V389zm12.9-16.2h5V384h-5v-11.2zm0 16.2h5v11.2h-5V389zm11.1-21.5h9v84.2h-9v-84.2zm6.6-21.7h6.1V364h-6.1v-18.2zM999.5 410h5v11.2h-5V410zm0 20h5v11.2h-5V430zm20.3-75.2h5v9.2h-5v-9.2z"/><path class="st3" d="M1276.2 346h23.3v25.3h-23.3V346z"/><path class="st4" d="M1215.4 386.5h25.8v62.1h-25.8v-62.1z"/><path class="st3" d="M1195.6 344.2h35.6v104.3h-35.6V344.2z"/><path class="st3" d="M1178.8 366h49.4v82.6h-49.4V366z"/><path class="st5" d="M1242.7 323.4h15.7v14.5h-15.7v-14.5z"/><path class="st3" d="M1284.1 323h-25.7v10.5h-21v115.1h25.7V438h21V323zm0 34h37.4v91.6h-37.4V357z"/><path class="st6" d="M1268.7 333h6.3v5.7h-6.3V333z"/><path class="st6" d="M1268.7 330.7h6.3v5.7h-6.3v-5.7z"/><path class="st6" d="M1268.7 330.7h6.3v5.7h-6.3v-5.7zm-10.8 13.5h5v11.2h-5v-11.2zm-9.8 0h5v11.2h-5v-11.2zm19.6 0h5v11.2h-5v-11.2zm-9.8 16.2h5v11.2h-5v-11.2zm-9.8 0h5v11.2h-5v-11.2zm19.6 0h5v11.2h-5v-11.2zm-9.8 21h5v11.2h-5v-11.2zm-9.8 0h5v11.2h-5v-11.2zm19.6 0h5v11.2h-5v-11.2zm-9.8 20h5v11.2h-5v-11.2zm-9.8 0h5v11.2h-5v-11.2zm19.6 0h5v11.2h-5v-11.2zm29.3-30.1h5v11.2h-5v-11.2zm-11.6-12.6h6.8V448h-6.8v-89.3zm0-10.7h6.8v7.4h-6.8V348zm21.5 23.3h5v11.2h-5v-11.2zm-9.9 16.2h5v11.2h-5v-11.2zm9.9 0h5v11.2h-5v-11.2zm-9.9 21h5v11.2h-5v-11.2zm9.9 0h5v11.2h-5v-11.2zm-9.9 20h5v11.2h-5v-11.2zm9.9 0h5v11.2h-5v-11.2zm-123.6-55.7h5V384h-5v-11.2zm0 16.2h5v11.2h-5V389zm9.8-16.2h5V384h-5v-11.2zm0 16.2h5v11.2h-5V389zm12.9-16.2h5V384h-5v-11.2zm0 16.2h5v11.2h-5V389zm11.1-21.5h9v84.2h-9v-84.2zm6.6-21.7h6.1V364h-6.1v-18.2zm-40.4 64.2h5v11.2h-5V410zm0 20h5v11.2h-5V430zm20.2-75.2h5v9.2h-5v-9.2z"/><path class="st3" d="M1450.8 346h23.3v25.3h-23.3V346z"/><path class="st4" d="M1390 386.5h25.8v62.1H1390v-62.1z"/><path class="st3" d="M1370.2 344.2h35.6v104.3h-35.6V344.2z"/><path class="st3" d="M1353.4 366h49.4v82.6h-49.4V366z"/><path class="st5" d="M1417.3 323.4h15.7v14.5h-15.7v-14.5z"/><path class="st3" d="M1458.7 323H1433v10.5h-21v115.1h25.7V438h21V323zm0 34h37.4v91.6h-37.4V357z"/><path class="st6" d="M1443.3 333h6.3v5.7h-6.3V333z"/><path class="st6" d="M1443.3 330.7h6.3v5.7h-6.3v-5.7z"/><path class="st6" d="M1443.3 330.7h6.3v5.7h-6.3v-5.7zm-10.8 13.5h5v11.2h-5v-11.2zm-9.8 0h5v11.2h-5v-11.2zm19.7 0h5v11.2h-5v-11.2zm-9.9 16.2h5v11.2h-5v-11.2zm-9.8 0h5v11.2h-5v-11.2zm19.7 0h5v11.2h-5v-11.2zm-9.9 21h5v11.2h-5v-11.2zm-9.8 0h5v11.2h-5v-11.2zm19.7 0h5v11.2h-5v-11.2zm-9.9 20h5v11.2h-5v-11.2zm-9.8 0h5v11.2h-5v-11.2zm19.7 0h5v11.2h-5v-11.2zm29.3-30.1h5v11.2h-5v-11.2zm-11.7-12.6h6.8V448h-6.8v-89.3zm0-10.7h6.8v7.4h-6.8V348zm21.5 23.3h5v11.2h-5v-11.2zm-9.8 16.2h5v11.2h-5v-11.2zm9.8 0h5v11.2h-5v-11.2zm-9.8 21h5v11.2h-5v-11.2zm9.8 0h5v11.2h-5v-11.2zm-9.8 20h5v11.2h-5v-11.2zm9.8 0h5v11.2h-5v-11.2zm-123.6-55.7h5V384h-5v-11.2zm0 16.2h5v11.2h-5V389zm9.9-16.2h5V384h-5v-11.2zm0 16.2h5v11.2h-5V389zm12.8-16.2h5V384h-5v-11.2zm0 16.2h5v11.2h-5V389zm11.1-21.5h9v84.2h-9v-84.2zm6.7-21.7h6.1V364h-6.1v-18.2zm-40.5 64.2h5v11.2h-5V410zm0 20h5v11.2h-5V430zm20.3-75.2h5v9.2h-5v-9.2z"/><path class="st7" d="M1497.7 402.7h-15.8v5.6h-10.2v4.9h-16.5v6.4h-10V414h-12v-5.7h-9.5v-5.6h-21.5v5.6H1383v-3h-1.6v-2.6h-23.2v5.2h-11.3v5.3h-14.5v5.5h-5.1v-1.5h-5.1v-4h-9.5v-2.5h-1v-2.4h-11v-5.6h-22v5.2h-10v5.3h-10.8v-4.9h-9.9v-5.6h-21.7v5.2H1215v5.3h-15v5h-11v-5h-11.7v-4.9h-10v-5.6h-23.6v5.2h-9.7v6.1h-11.3v5.6h-3.7v1.4h-6.7v-2.3H1099V414h-18.7v2.7h-3.6V414h-11.4v-5.7h-11v-5.6h-20v5.6h-23.6v-5.6h-19.4v5.6h-11.5v4.9h-15.1v5.5h-10.4V414H944v-5.7h-11v-5.6h-21.7v5.2h-12v6.1H890v-5.7h-11.7v-5.6h-22v5.6h-9v4.9h-16v5.5h-11.6V414h-7v-1.5H810v-4.2h-11v-5.6h-21.7v5.3h-11v6h-10.8v4.3h-4.2v5h-5.6V420h-16v16h8v2h8v13.8h753.2v-49.1h-1.2z"/><path class="st7" d="M730.7 434.3l767 5.9V488H728v-52.4l2.7-1.3z"/><path class="st7" d="M1482.7 445.2h16.2V488h-16.2v-42.8zm-753-11h17.2v9.8h-17.2v-9.8z"/><path class="st8" d="M1124 428v-2.3h5V421h5v-7h-11.3v5.6h-3.7v3.8h-6.7v-4.7H1099V414h-18.7v2.7h-3.6V414h-11.3v-5.6h-11v-5.7h-20v5.7h-23.7v-5.7h-19.3v5.7h-11.5v4.8h-15.2v5.5h-10.3V414h-10.3v-5.7h-11v-5.7h-21.7v5.2h-12v6.1h-9.3v-5.7h-11.7v-5.7h-22v5.7h-9v4.8h-16v5.5h-11.7V414H810v-5.7h-11v-5.7h-21.7v5.3h-11v6h-10.8v4.3h-4.2v5h-5.6V420l-17.7.3v15.3l9.7.4v2h20v-2.8h9.2v-5.5h-7.2v-6.4h10.7v-5h9V414h8.8v2.7H803v6.7h5.7v4.7h22.7v-2h25v-2h6.6v5.8h10.5V444h-5v5.2h6.2v-3.8h10.7V440h9v-3.1h7.5v-1.4h12.3v4.5h13.2v5.5h4.4v5h5.8V440H930v-4.8h-14v-5.5h5.5V424h16v6.7h29.7v-7.3h27.7v-10.9h42v-1.8h7.4v.4h15.4v7.5h7.7v1.3h16.8v.3h9.2v3h16v4.7l14.6.1zm-229.6 7.2h-10.2v4.8h-4v-14.5h-1.8v-2.2h-14.2V417h-7.8v-.3h7.7v-3.5h3.3v.8h11v9.3h21.8v5.7h-5.8v6.2zm27.3-11.9h-15V417h-4.3v-.3h13v-4.2h10v4.2h7.7v2.3h-11.4v4.3zm225.3-13.5h17v2.5h13.3v-4h-10v-5.6h-23.6v5.2h-9.7v6.1h13v-4.2zm101-1.5v-5.6h-21.7v5.2H1215v5.3h-15v5h-11v-5h-14.7v5.5h9.7v4.6h-6.7v5.7h13.4v-5.7h12.6v-3.7h13.4v-6.4h12.6v-3.4h16.9v3.4h11.7v-4.9h-9.9zm30.7 5.7v-6.1h-10v5.3h-10.8v6.4h10.8V414h10zm0-11.3h22v5.2h-22v-5.2zm18.6 5.6h14.3v4.8h-14.3v-4.8zm14.4 4.9h10.5v5.5h-10.5v-5.5zm10.5 5.5h10.2v4.7h-10.2v-4.7zm36-4.7v-6.1h-11.3v5.3h-14.5v5.5h21.5V414h4.3zm0-11.3h23.2v5.2h-23.2v-5.2z"/><path class="st8" d="M1477.2 415.9h4.7v-7.6h-10.2v4.9h-16.5v6.4h-10V414h-12v-5.7h-9.5v-5.6h-21.5v5.6h-22.8v7.6h25.8v-7.6h17v7.6h5.5v5.1h5.5v4h2.2v4h10v-4h11.8v-2.7h17.5v2.7h12.2v-6.3h-9.7v-2.8zm-428.5 7.4h11.8v5.7h-11.8v-5.7zm15 16.7v5.2h13.5V440h-10.5v-4.8h-11v4.8h8zm10.2 6.6h7.8v3.9h-7.8v-3.9zm49-17.6h12.2v5.5h-12.2V429zm2 11h10.2v5.5h-10.2V440zm-6.5 6.6h8.2v5.1h-8.2v-5.1zm16.8-12.1h9.2v5.5h-9.2v-5.5zm36.7 0h-5.5v-4.7h-20.5v5.4h20.5v4.8h10.9v-11h-5.4v5.5zm14 12.1v5.2h8.8v-6.6h-5.8V440h-11.6v6.6h8.6zm56.5-21.6h-9v-6.3h-13v6.3h10.3v4.8h11.7v15.4h-5.8v6.6h6.8v-5.2h6.8v-19.2h-7.8V425zm10.5 10.2h9.8v4.8h-9.8v-4.8zm22.5-15.6h-6.7v9.4h-6v6.2h8.2v-.7h1.2v.7h10.8v-5.4h-7.5v-10.2z"/><path class="st8" d="M1288.7 423.3h-10v5.7h12v-4h21v-6.3h-23v4.6zm17 14.7h-5v2h-3.4v-4.8h-12.6v4.8h10.2v6.6h5.8v3.9h5V440h7v-11h-7v9zm60.7-13v-6.3h-12.5v6.3h8.5v4.8h12.8V425h-8.8zm40.8 4.8v-11.1h-6v16.8h-11v4.5h-8.8v-10.2h-6.2v11.4h3.1v10.6h6.4v-6.6h6.5V440h12.2v-4.5h3.8v-1h14.5v-4.7h-14.5z"/><path class="st8" d="M1416.4 423.3h11.2v5.7h-11.2v-5.7zm11.3 6.5v4.7h-6v8.1h7.7v-1.4h4.5v-11.4h-6.2zm6.2 11.4h11.5v4h-11.5v-4zm9.8 5.4h6v3.9h-6v-3.9zm46.1-23.3h7.9v7.7h-7.9v-7.7zm3.9 21.9h5.2v6.5h-5.2v-6.5z"/><path class="st2" d="M2162.5 334.8v88.5h46.1v-71.6h-5.2V346h-5.2v-7.3h-11v-3.9h-24.7zm68.4 84.2h-14.2v-55h14.2v55zm-256.7-84.2v88.5h46.2v-71.6h-5.3V346h-5.1v-7.3h-11.1v-3.9h-24.7zm68.4 84.2h-14.2v-55h14.2v55zm-253.4-84.2v88.5h46.2v-71.6h-5.2V346h-5.2v-7.3h-11v-3.9h-24.8zm68.5 84.2h-14.2v-55h14.2v55zm-252.3-84.2v88.5h46.2v-71.6h-5.3V346h-5.1v-7.3h-11.1v-3.9h-24.7zm68.4 84.2h-14.2v-55h14.2v55z"/><path class="st3" d="M2089.8 371.3h-23.3V346h23.3v25.3z"/><path class="st4" d="M2150.6 448.6h-25.8v-62.1h25.8v62.1z"/><path class="st3" d="M2170.4 448.5h-35.6V344.2h35.6v104.3z"/><path class="st3" d="M2187.2 448.6h-49.4V366h49.4v82.6z"/><path class="st5" d="M2123.3 337.9h-15.7v-14.5h15.7v14.5z"/><path class="st3" d="M2081.9 438h21v10.6h25.7V333.5h-21V323h-25.7v115zm0 10.6h-37.4V357h37.4v91.6z"/><path class="st6" d="M2097.3 338.7h-6.3V333h6.3v5.7z"/><path class="st6" d="M2097.3 336.4h-6.3v-5.7h6.3v5.7z"/><path class="st6" d="M2097.3 336.4h-6.3v-5.7h6.3v5.7zm10.8 19h-5v-11.2h5v11.2zm9.8 0h-5v-11.2h5v11.2zm-19.7 0h-5v-11.2h5v11.2zm9.9 16.2h-5v-11.2h5v11.2zm9.8 0h-5v-11.2h5v11.2zm-19.7 0h-5v-11.2h5v11.2zm9.9 21h-5v-11.2h5v11.2zm9.8 0h-5v-11.2h5v11.2zm-19.7 0h-5v-11.2h5v11.2zm9.9 20h-5v-11.2h5v11.2zm9.8 0h-5v-11.2h5v11.2zm-19.7 0h-5v-11.2h5v11.2zm-29.3-30.1h-5v-11.2h5v11.2zm11.7 65.5h-6.8v-89.3h6.8V448zm0-92.6h-6.8V348h6.8v7.4zm-21.5 27.1h-5v-11.2h5v11.2zm9.8 16.2h-5v-11.2h5v11.2zm-9.8 0h-5v-11.2h5v11.2zm9.8 21h-5v-11.2h5v11.2zm-9.8 0h-5v-11.2h5v11.2zm9.8 20h-5v-11.2h5v11.2zm-9.8 0h-5v-11.2h5v11.2zm123.6-55.7h-5v-11.2h5V384zm0 16.2h-5V389h5v11.2zm-9.8-16.2h-5v-11.2h5V384zm0 16.2h-5V389h5v11.2zM2160 384h-5v-11.2h5V384zm0 16.2h-5V389h5v11.2zm-11.1 51.5h-9v-84.2h9v84.2zm-6.7-87.7h-6.1v-18.2h6.1V364zm40.5 57.2h-5V410h5v11.2zm0 20h-5V430h5v11.2zm-20.2-77.2h-5v-9.2h5v9.2z"/><path class="st3" d="M1905.3 371.3H1882V346h23.3v25.3z"/><path class="st4" d="M1966.2 448.6h-25.8v-62.1h25.8v62.1z"/><path class="st3" d="M1985.9 448.5h-35.6V344.2h35.6v104.3z"/><path class="st3" d="M2002.7 448.6h-49.4V366h49.4v82.6z"/><path class="st5" d="M1938.8 337.9h-15.7v-14.5h15.7v14.5z"/><path class="st3" d="M1897.4 438h21v10.6h25.8V333.5h-21V323h-25.8v115zm0 10.6H1860V357h37.4v91.6z"/><path class="st6" d="M1912.8 338.7h-6.3V333h6.3v5.7z"/><path class="st6" d="M1912.8 336.4h-6.3v-5.7h6.3v5.7z"/><path class="st6" d="M1912.8 336.4h-6.3v-5.7h6.3v5.7zm10.8 19h-5v-11.2h5v11.2zm9.9 0h-5v-11.2h5v11.2zm-19.7 0h-5v-11.2h5v11.2zm9.8 16.2h-5v-11.2h5v11.2zm9.9 0h-5v-11.2h5v11.2zm-19.7 0h-5v-11.2h5v11.2zm9.8 21h-5v-11.2h5v11.2zm9.9 0h-5v-11.2h5v11.2zm-19.7 0h-5v-11.2h5v11.2zm9.8 20h-5v-11.2h5v11.2zm9.9 0h-5v-11.2h5v11.2zm-19.7 0h-5v-11.2h5v11.2zm-29.3-30.1h-5v-11.2h5v11.2zm11.7 65.5h-6.8v-89.3h6.8V448zm0-92.6h-6.8V348h6.8v7.4zm-21.5 27.1h-5v-11.2h5v11.2zm9.8 16.2h-5v-11.2h5v11.2zm-9.8 0h-5v-11.2h5v11.2zm9.8 21h-5v-11.2h5v11.2zm-9.8 0h-5v-11.2h5v11.2zm9.8 20h-5v-11.2h5v11.2zm-9.8 0h-5v-11.2h5v11.2zm123.6-55.7h-5v-11.2h5V384zm0 16.2h-5V389h5v11.2zm-9.9-16.2h-5v-11.2h5V384zm0 16.2h-5V389h5v11.2zm-12.9-16.2h-5v-11.2h5V384zm0 16.2h-5V389h5v11.2zm-11.1 51.5h-9v-84.2h9v84.2zm-6.6-87.7h-6.1v-18.2h6.1V364zm40.5 57.2h-5V410h5v11.2zm0 20h-5V430h5v11.2zM1978 364h-5v-9.2h5v9.2z"/><path class="st3" d="M1721.6 371.3h-23.3V346h23.3v25.3z"/><path class="st4" d="M1782.4 448.6h-25.8v-62.1h25.8v62.1z"/><path class="st3" d="M1802.2 448.5h-35.6V344.2h35.6v104.3z"/><path class="st3" d="M1819 448.6h-49.4V366h49.4v82.6z"/><path class="st5" d="M1755.1 337.9h-15.7v-14.5h15.7v14.5z"/><path class="st3" d="M1713.7 438h21v10.6h25.7V333.5h-21V323h-25.7v115zm0 10.6h-37.4V357h37.4v91.6z"/><path class="st6" d="M1729.1 338.7h-6.3V333h6.3v5.7z"/><path class="st6" d="M1729.1 336.4h-6.3v-5.7h6.3v5.7z"/><path class="st6" d="M1729.1 336.4h-6.3v-5.7h6.3v5.7zm10.8 19h-5v-11.2h5v11.2zm9.8 0h-5v-11.2h5v11.2zm-19.6 0h-5v-11.2h5v11.2zm9.8 16.2h-5v-11.2h5v11.2zm9.8 0h-5v-11.2h5v11.2zm-19.6 0h-5v-11.2h5v11.2zm9.8 21h-5v-11.2h5v11.2zm9.8 0h-5v-11.2h5v11.2zm-19.6 0h-5v-11.2h5v11.2zm9.8 20h-5v-11.2h5v11.2zm9.8 0h-5v-11.2h5v11.2zm-19.6 0h-5v-11.2h5v11.2zm-29.3-30.1h-5v-11.2h5v11.2zm11.6 65.5h-6.8v-89.3h6.8V448zm0-92.6h-6.8V348h6.8v7.4zm-21.5 27.1h-5v-11.2h5v11.2zm9.9 16.2h-5v-11.2h5v11.2zm-9.9 0h-5v-11.2h5v11.2zm9.9 21h-5v-11.2h5v11.2zm-9.9 0h-5v-11.2h5v11.2zm9.9 20h-5v-11.2h5v11.2zm-9.9 0h-5v-11.2h5v11.2zm123.6-55.7h-5v-11.2h5V384zm0 16.2h-5V389h5v11.2zm-9.8-16.2h-5v-11.2h5V384zm0 16.2h-5V389h5v11.2zm-12.9-16.2h-5v-11.2h5V384zm0 16.2h-5V389h5v11.2zm-11.1 51.5h-9v-84.2h9v84.2zm-6.6-87.7h-6.1v-18.2h6.1V364zm40.4 57.2h-5V410h5v11.2zm0 20h-5V430h5v11.2zm-20.2-77.2h-5v-9.2h5v9.2z"/><path class="st3" d="M1547 371.3h-23.3V346h23.3v25.3z"/><path class="st4" d="M1607.8 448.6H1582v-62.1h25.8v62.1z"/><path class="st3" d="M1627.6 448.5H1592V344.2h35.6v104.3z"/><path class="st3" d="M1644.4 448.6H1595V366h49.4v82.6z"/><path class="st5" d="M1580.5 337.9h-15.7v-14.5h15.7v14.5z"/><path class="st3" d="M1539.1 438h21v10.6h25.7V333.5h-21V323h-25.7v115zm0 10.6h-37.4V357h37.4v91.6z"/><path class="st6" d="M1554.5 338.7h-6.3V333h6.3v5.7z"/><path class="st6" d="M1554.5 336.4h-6.3v-5.7h6.3v5.7z"/><path class="st6" d="M1554.5 336.4h-6.3v-5.7h6.3v5.7zm10.8 19h-5v-11.2h5v11.2zm9.8 0h-5v-11.2h5v11.2zm-19.7 0h-5v-11.2h5v11.2zm9.9 16.2h-5v-11.2h5v11.2zm9.8 0h-5v-11.2h5v11.2zm-19.7 0h-5v-11.2h5v11.2zm9.9 21h-5v-11.2h5v11.2zm9.8 0h-5v-11.2h5v11.2zm-19.7 0h-5v-11.2h5v11.2zm9.9 20h-5v-11.2h5v11.2zm9.8 0h-5v-11.2h5v11.2zm-19.7 0h-5v-11.2h5v11.2zm-29.3-30.1h-5v-11.2h5v11.2zm11.7 65.5h-6.8v-89.3h6.8V448zm0-92.6h-6.8V348h6.8v7.4zm-21.5 27.1h-5v-11.2h5v11.2zm9.8 16.2h-5v-11.2h5v11.2zm-9.8 0h-5v-11.2h5v11.2zm9.8 21h-5v-11.2h5v11.2zm-9.8 0h-5v-11.2h5v11.2zm9.8 20h-5v-11.2h5v11.2zm-9.8 0h-5v-11.2h5v11.2zm123.6-55.7h-5v-11.2h5V384zm0 16.2h-5V389h5v11.2zM1630 384h-5v-11.2h5V384zm0 16.2h-5V389h5v11.2zm-12.8-16.2h-5v-11.2h5V384zm0 16.2h-5V389h5v11.2zm-11.1 51.5h-9v-84.2h9v84.2zm-6.7-87.7h-6.1v-18.2h6.1V364zm40.5 57.2h-5V410h5v11.2zm0 20h-5V430h5v11.2zm-20.3-77.2h-5v-9.2h5v9.2z"/><path class="st7" d="M1498.9 402.7v49.1h753.2V438h8v-2h3.9v-16h-11.9v3.3h-5.6v-5h-4.2V414h-10.8v-6h-11v-5.3h-21.7v5.6h-11v4.2h-2.7v1.5h-7v4.7h-11.6v-5.5h-16v-4.9h-9v-5.6h-22v5.6h-11.7v5.7h-9.3v-6.1h-12v-5.2h-21.7v5.6h-11v5.7h-10.3v4.7h-10.4v-5.5H2018v-4.9h-11.5v-5.6h-19.4v5.6h-23.6v-5.6h-20v5.6h-11v5.7h-11.4v2.7h-3.6V414h-18.7v4.7h-13.3v2.3h-6.7v-1.4h-3.7V414h-11.3v-6.1h-9.7v-5.2h-23.6v5.6h-10v4.9h-11.7v5h-11v-5h-15v-5.3h-11.3v-5.2h-21.7v5.6h-9.9v4.9h-10.8v-5.3h-10v-5.2h-22v5.6h-11v2.4h-1v2.5h-9.5v4h-5.1v1.5h-5.1v-5.5h-14.5v-5.3h-11.3v-5.2h-23.2v2.6h-1.6v3h-19.2v-5.6h-21.5v5.6h-9.5v5.7h-12v5.6h-10v-6.4h-16.5v-4.9h-10.2v-5.6h-17z"/><path class="st7" d="M1493.7 408.4h8V488h-8z"/><path class="st8" d="M1686.2 408.3h14.3v4.8h-14.3zm-20.8 10.4h10.2v4.7h-10.2zM2264 420h-11.9v3.2h-5.6v-5h-4.2v-4.3h-10.8v-6h-11v-5.3h-21.7v5.7h-11v5.7h-9.7v4.5h-11.7V413h-16v-4.8h-9v-5.7h-22v5.7h-11.7v5.7h-9.3v-6.1h-12v-5.2h-21.7v5.7h-11v5.7h-10.3v4.7h-10.3v-5.5h-15.2v-4.8h-11.5v-5.7h-19.3v5.7h-23.7v-5.7h-20v5.7h-11v5.6h-11.3v2.7h-3.6V414h-18.7v4.7h-13.3v4.7h-6.7v-3.8h-3.7V414h-11.3v7h5v4.7h5v2.2h14.6v-4.7h16v-3h9.2v-.3h16.8v-1.3h7.7v-7.5h15.4v-.4h7.4v1.8h42v10.9h27.7v7.3h29.7V424h16v5.7h5.5v5.5h-14v4.8h-7.6v10.5h5.8v-5h4.4V440h13.2v-4.5h12.3v1.4h7.5v3.1h9v5.4h10.7v3.8h6.2V444h-5v-14.1h10.5v-5.8h6.6v2h25v2h22.7v-4.7h5.7v-6.7h14.8V414h8.8v4.3h9v5h10.7v6.4h-7.2v5.5h9.2v2.8h20v-2h3.9v-16zm-168.6-3h-4.3v6.3h-15V419h-11.4v-2.3h7.7v-4.2h10v4.2h13v.3zm46 0h-7.8v6.3h-14.2v2.2h-1.8V440h-4v-4.8h-10.2V429h-5.8v-5.7h21.8V414h11v-.8h3.3v3.5h7.7v.3zm-412.3-3v5.6h10.8v-6.4h-10.8v-5.3h-10v6.1zm-32-11.3h22v5.2h-22zm-80.7 0h23.2v5.2h-23.2zm237.7 5.2v-5.2h-23.6v5.6h-10v4h13.3v-2.5h17v4.2h13v-6.1zm-47 15.4v5.7h13.4v-5.7h-6.7v-4.6h9.7v-5.5h-14.7v5h-11v-5h-15v-5.3h-11.3v-5.2h-21.7v5.6h-9.9v4.9h11.7v-3.4h16.9v3.4h12.6v6.4h13.4v3.7zm-131.5-10.1h10.5v5.5h-10.5zm-24.7 0v-5.3h-11.3v6.1h4.3v4.7h21.5v-5.5z"/><path class="st7" d="M1500.1 440.2H2264V488h-763.9z"/><path class="st7" d="M2250.9 434.2h13.1v9.8h-13.1zm-752 11h16.2V488h-16.2z"/><path class="st8" d="M1481.9 401.4h21.6v6.9h-21.6z"/></svg>